<svg id="Capa_1" data-name="Capa 1" xmlns="http://www.w3.org/2000/svg" viewBox="0 0 248.82 273.24"><defs><style>.cls-1{fill:#eea649;}.cls-2{fill:#b8cb53;}</style></defs><path class="cls-1" d="M368.1,278.7c1.1.3,26.3,6.8,35,39.5a3.09,3.09,0,0,0,2.9,2.2,2.2,2.2,0,0,0,.8-.1,3,3,0,0,0,2.1-3.7c-9.6-36.3-38.2-43.5-39.4-43.8a3,3,0,0,0-3.6,2.2A3,3,0,0,0,368.1,278.7Z" transform="translate(-178.36 -259.56)"/><path class="cls-1" d="M422.2,359.5a3,3,0,1,0-5.8,1.8c.1.4,12.7,41.9-3.9,67.5-7.2,11.1-19,17.7-35.1,19.7a20.08,20.08,0,0,1-2.5.1H306.5V424.7h20.2c5,0,8.6-3.6,9.6-9.7a31.43,31.43,0,0,0,.3-7v-.5a13,13,0,0,1,.3-4.9,3.92,3.92,0,0,1,4-2.9H352a3,3,0,0,0,0-6H341a9.9,9.9,0,0,0-9.7,7,16,16,0,0,0-.5,7.1v.5a25.29,25.29,0,0,1-.2,5.6c-.4,2.1-1.3,4.7-3.7,4.7H306.7V387.7l63.6-35.9a3,3,0,1,0-3-5.2l-60.7,34.2V340.5a34.67,34.67,0,0,0,9.8,1.4,28.73,28.73,0,0,0,10.4-1.9c7.7-2.9,13.7-9.1,17.8-18.4a3,3,0,1,0-5.5-2.5c-10,22.5-29.1,16.3-32.6,15V272.9c19.2-16.4,34.6-.1,35.3.6a3.21,3.21,0,0,0,2.2,1,3.18,3.18,0,0,0,2-.8,3,3,0,0,0,.2-4.2c-.3-.4-8.6-9.3-21.1-9.9-7.4-.4-14.7,2.3-21.6,7.9-3.2-2.8-10-7.5-18.9-7.9-8.2-.4-16.2,2.9-23.7,9.7a3,3,0,0,0,4,4.4c17.5-15.9,32-4.3,35.5-1v52.9c-23.7,5.6-30.3-15.4-30.5-16.3a3,3,0,1,0-5.7,1.7c.1.5,3.6,12.2,14.6,18.2a28.33,28.33,0,0,0,13.9,3.4,35.94,35.94,0,0,0,7.8-.9v19.2H263a3,3,0,0,0,0,6h37.5v52.4H276c-3.4,0-4.6-5.2-4.9-7.5a52.64,52.64,0,0,1-.3-8.2v-.7a27.74,27.74,0,0,0-.6-9.4c-1.6-5.6-5.8-9.1-11-9.1H246.1a3,3,0,0,0,0,6h13.1c3.4,0,4.8,3,5.2,4.7.7,2.4.5,4.8.4,7.5v.7a47.38,47.38,0,0,0,.3,9.4c1.1,7.9,5.2,12.7,10.8,12.7h24.5v20.3H212.7c-17.6,0-20.3-17.6-20.4-18.4a3,3,0,0,0-6,.8c1.1,8.2,8,23.6,26.3,23.6h87.7V472H237.9c-5.3,0-9.6,1.6-12.7,4.8-5,5.1-5,12.5-5,12.8a3,3,0,0,0,3,2.9h0a3,3,0,0,0,3-3c0-.1,0-5.2,3.3-8.5,1.9-2,4.8-3,8.4-3h62.4v41.5c-19.2,16.4-34.6.1-35.3-.6a3,3,0,1,0-4.4,4c.3.4,8.6,9.3,21.1,9.9H283c7,0,13.8-2.7,20.3-8,3.2,2.8,10,7.5,18.9,7.9h1.3c7.7,0,15.3-3.3,22.4-9.8a3,3,0,1,0-4-4.4c-17.5,15.9-32,4.3-35.5,1V477.9h62.4q5.4,0,8.4,3c3.3,3.3,3.3,8.4,3.3,8.5a2.93,2.93,0,0,0,2.9,3h.1a3,3,0,0,0,3-2.9c0-.3.1-7.7-5-12.8-3.1-3.2-7.4-4.8-12.7-4.8H306.4V454.3H375c1.1,0,2.2-.1,3.2-.2,18-2.2,31.2-9.7,39.4-22.3C435.7,404,422.7,361.3,422.2,359.5Z" transform="translate(-178.36 -259.56)"/><path class="cls-1" d="M220.9,406h28.4a3,3,0,0,0,0-6H220.9a13.18,13.18,0,0,1-11.5-6.4c0-.1-.1-.1-.1-.2-10.6-18-11.4-37-2.4-56.5A85,85,0,0,1,224,312.5a3,3,0,1,0-4-4.4,90,90,0,0,0-18.4,26.1c-9.8,21.1-8.9,42.6,2.6,62.2A18.67,18.67,0,0,0,220.9,406Z" transform="translate(-178.36 -259.56)"/><path class="cls-1" d="M396.5,399.8c-3.1,10.9-8.8,20-14.9,23.7a26,26,0,0,1-13.6,3.7h-7.1a3,3,0,0,0,0,6H368a32.53,32.53,0,0,0,16.7-4.6c7.5-4.5,14-14.7,17.5-27.2a3,3,0,0,0-2.1-3.7A3,3,0,0,0,396.5,399.8Z" transform="translate(-178.36 -259.56)"/><path class="cls-2" d="M273.5,305.3c-5.5-9.1-19.6-12.2-19.6-12.2s-1.8,14.3,5,22.5C266.1,324.2,279.3,314.9,273.5,305.3Z" transform="translate(-178.36 -259.56)"/><path class="cls-2" d="M237.9,368.6c-10.6-.8-21.3,8.9-21.3,8.9s10.6,9.7,21.3,8.9C249.1,385.6,249.1,369.4,237.9,368.6Z" transform="translate(-178.36 -259.56)"/><path class="cls-2" d="M257.4,345.2c-10.6-.8-21.3,8.9-21.3,8.9s10.6,9.7,21.3,8.9C268.6,362.2,268.6,346.1,257.4,345.2Z" transform="translate(-178.36 -259.56)"/><path class="cls-2" d="M358.9,405.6c10.6.8,21.3-8.9,21.3-8.9s-10.6-9.7-21.3-8.9C347.7,388.6,347.7,404.8,358.9,405.6Z" transform="translate(-178.36 -259.56)"/><path class="cls-2" d="M230.4,312.2c7-8.1,5.6-22.4,5.6-22.4s-14.1,2.7-19.9,11.7C210.1,311,223.1,320.6,230.4,312.2Z" transform="translate(-178.36 -259.56)"/><path class="cls-2" d="M347.6,327.9c6.2-8.7,3.6-22.8,3.6-22.8s-13.8,4-18.7,13.4C327.3,328.6,341.1,337.1,347.6,327.9Z" transform="translate(-178.36 -259.56)"/><path class="cls-2" d="M409.3,396.7c3.2-10.2-3.8-22.7-3.8-22.7s-11.9,8.1-13.5,18.7C390.2,403.7,405.9,407.4,409.3,396.7Z" transform="translate(-178.36 -259.56)"/><path class="cls-2" d="M196.5,408.8c-1.7-10.5-13.5-18.7-13.5-18.7s-7,12.6-3.8,22.7C182.5,423.6,198.2,419.9,196.5,408.8Z" transform="translate(-178.36 -259.56)"/><path class="cls-2" d="M219.5,499.6c4.2,9.8,17.6,14.9,17.6,14.9s3.8-13.9-1.8-23C229.5,481.8,215.1,489.2,219.5,499.6Z" transform="translate(-178.36 -259.56)"/><path class="cls-2" d="M263.3,510.1c-6.3-7.2-19.2-7.7-19.2-7.7s.7,12.9,7.9,19.1C259.7,527.9,269.9,517.6,263.3,510.1Z" transform="translate(-178.36 -259.56)"/><path class="cls-2" d="M341.4,512.2c6.3-7.2,19.2-7.7,19.2-7.7s-.7,12.9-7.9,19.1C345,530.1,334.8,519.8,341.4,512.2Z" transform="translate(-178.36 -259.56)"/><path class="cls-2" d="M387.3,498.3c-4.2,9.8-17.6,14.9-17.6,14.9s-3.8-13.9,1.8-23C377.3,480.5,391.7,487.9,387.3,498.3Z" transform="translate(-178.36 -259.56)"/><path class="cls-2" d="M380.8,351.8c9.2-5.5,12.4-19.5,12.4-19.5s-14.3-1.9-22.5,4.9C361.9,344.2,371.1,357.5,380.8,351.8Z" transform="translate(-178.36 -259.56)"/><path class="cls-2" d="M395.7,315.8c3.8,10,17.1,15.5,17.1,15.5s4.2-13.7-1-23C406.3,298.5,391.7,305.3,395.7,315.8Z" transform="translate(-178.36 -259.56)"/><path class="cls-2" d="M259,263.2c-9.4,5-13.3,18.8-13.3,18.8s14.1,2.6,22.8-3.7C277.5,271.7,269,258,259,263.2Z" transform="translate(-178.36 -259.56)"/><path class="cls-2" d="M345.2,263.2c9.4,5,13.3,18.8,13.3,18.8s-14.1,2.6-22.8-3.7C326.7,271.7,335.3,258,345.2,263.2Z" transform="translate(-178.36 -259.56)"/></svg>