<?xml version="1.0" encoding="utf-8"?>
<!-- Generator: Adobe Illustrator 25.0.1, SVG Export Plug-In . SVG Version: 6.00 Build 0)  -->
<svg version="1.1" id="Capa_1" xmlns="http://www.w3.org/2000/svg" xmlns:xlink="http://www.w3.org/1999/xlink" x="0px" y="0px"
	 viewBox="0 0 612 792" style="enable-background:new 0 0 612 792;" xml:space="preserve">
<style type="text/css">
	.st0{fill:#EEA649;}
	.st1{fill:#B8CB53;}
	.st2{enable-background:new    ;}
</style>
<g>
	<g>
		<path class="st0" d="M368.1,278.7c1.1,0.3,26.3,6.8,35,39.5c0.4,1.3,1.6,2.2,2.9,2.2c0.3,0,0.5,0,0.8-0.1c1.6-0.4,2.6-2.1,2.1-3.7
			c-9.6-36.3-38.2-43.5-39.4-43.8c-1.6-0.4-3.2,0.6-3.6,2.2C365.5,276.7,366.5,278.3,368.1,278.7z"/>
		<path class="st0" d="M422.2,359.5c-0.5-1.6-2.2-2.5-3.8-2c-1.6,0.5-2.5,2.2-2,3.8c0.1,0.4,12.7,41.9-3.9,67.5
			c-7.2,11.1-19,17.7-35.1,19.7c-0.8,0.1-1.6,0.1-2.5,0.1h-68.4v-23.9h20.2c5,0,8.6-3.6,9.6-9.7c0.4-2.1,0.4-4.4,0.3-7l0-0.5
			c-0.1-1.9-0.2-3.4,0.3-4.9c0.8-2.4,2.6-2.9,4-2.9H352c1.7,0,3-1.3,3-3c0-1.7-1.3-3-3-3H341c-4.6,0-8.3,2.7-9.7,7
			c-0.9,2.6-0.7,4.9-0.5,7.1l0,0.5c0.1,2.1,0.1,3.9-0.2,5.6c-0.4,2.1-1.3,4.7-3.7,4.7h-20.2v-30.9l63.6-35.9c1.4-0.8,2-2.6,1.1-4.1
			c-0.8-1.4-2.6-2-4.1-1.1l-60.7,34.2v-40.3c2.3,0.7,5.8,1.4,9.8,1.4c3.2,0,6.8-0.5,10.4-1.9c7.7-2.9,13.7-9.1,17.8-18.4
			c0.7-1.5,0-3.3-1.5-4c-1.5-0.7-3.3,0-4,1.5c-10,22.5-29.1,16.3-32.6,15v-61.2c19.2-16.4,34.6-0.1,35.3,0.6c0.6,0.6,1.4,1,2.2,1
			c0.7,0,1.4-0.3,2-0.8c1.2-1.1,1.3-3,0.2-4.2c-0.3-0.4-8.6-9.3-21.1-9.9c-7.4-0.4-14.7,2.3-21.6,7.9c-3.2-2.8-10-7.5-18.9-7.9
			c-8.2-0.4-16.2,2.9-23.7,9.7c-1.2,1.1-1.3,3-0.2,4.2c1.1,1.2,3,1.3,4.2,0.2c17.5-15.9,32-4.3,35.5-1v52.9
			c-23.7,5.6-30.3-15.4-30.5-16.3c-0.5-1.6-2.1-2.5-3.7-2c-1.6,0.5-2.5,2.1-2,3.7c0.1,0.5,3.6,12.2,14.6,18.2
			c4.2,2.3,8.8,3.4,13.9,3.4c2.5,0,5.1-0.3,7.8-0.9v19.2h-37.5c-1.7,0-3,1.3-3,3s1.3,3,3,3h37.5v52.4h-24.5c-3.4,0-4.6-5.2-4.9-7.5
			c-0.3-2.4-0.4-5.1-0.3-8.2l0-0.7c0.2-3,0.3-6-0.6-9.4c-1.6-5.6-5.8-9.1-11-9.1h-13.1c-1.7,0-3,1.3-3,3s1.3,3,3,3h13.1
			c3.4,0,4.8,3,5.2,4.7c0.7,2.4,0.5,4.8,0.4,7.5l0,0.7c-0.2,3.5-0.1,6.6,0.3,9.4c1.1,7.9,5.2,12.7,10.8,12.7h24.5v20.3h-87.7
			c-17.6,0-20.3-17.6-20.4-18.4c-0.2-1.6-1.7-2.8-3.4-2.6c-1.6,0.2-2.8,1.7-2.6,3.4c1.1,8.2,8,23.6,26.3,23.6h87.7v30.3h-62.4
			c-5.3,0-9.6,1.6-12.7,4.8c-5,5.1-5,12.5-5,12.8c0,1.6,1.4,2.9,3,2.9c0,0,0,0,0,0c1.7,0,3-1.4,3-3c0-0.1,0-5.2,3.3-8.5
			c1.9-2,4.8-3,8.4-3h62.4v41.5c-19.2,16.4-34.6,0.1-35.3-0.6c-1.1-1.2-3-1.3-4.2-0.2c-1.2,1.1-1.3,3-0.2,4.2
			c0.3,0.4,8.6,9.3,21.1,9.9c0.4,0,0.9,0,1.3,0c7,0,13.8-2.7,20.3-8c3.2,2.8,10,7.5,18.9,7.9c0.4,0,0.9,0,1.3,0
			c7.7,0,15.3-3.3,22.4-9.8c1.2-1.1,1.3-3,0.2-4.2c-1.1-1.2-3-1.3-4.2-0.2c-17.5,15.9-32,4.3-35.5,1v-41.6h62.4c3.6,0,6.4,1,8.4,3
			c3.3,3.3,3.3,8.4,3.3,8.5c0,1.7,1.3,3,2.9,3c0,0,0,0,0.1,0c1.6,0,3-1.3,3-2.9c0-0.3,0.1-7.7-5-12.8c-3.1-3.2-7.4-4.8-12.7-4.8
			h-62.4v-17.6H375c1.1,0,2.2-0.1,3.2-0.2c18-2.2,31.2-9.7,39.4-22.3C435.7,404,422.7,361.3,422.2,359.5z"/>
		<path class="st0" d="M220.9,406h28.4c1.7,0,3-1.3,3-3s-1.3-3-3-3h-28.4c-8,0-11.3-6.1-11.5-6.4c0-0.1-0.1-0.1-0.1-0.2
			c-10.6-18-11.4-37-2.4-56.5c6.8-14.8,17-24.3,17.1-24.4c1.2-1.1,1.3-3,0.2-4.2c-1.1-1.2-3-1.3-4.2-0.2
			c-0.4,0.4-11.1,10.3-18.4,26.1c-9.8,21.1-8.9,42.6,2.6,62.2C204.7,397.6,209.7,406,220.9,406z"/>
		<path class="st0" d="M396.5,399.8c-3.1,10.9-8.8,20-14.9,23.7c-4.1,2.5-8.8,3.7-13.6,3.7h-7.1c-1.7,0-3,1.3-3,3s1.3,3,3,3h7.1
			c5.9,0,11.7-1.6,16.7-4.6c7.5-4.5,14-14.7,17.5-27.2c0.4-1.6-0.5-3.3-2.1-3.7C398.6,397.3,396.9,398.2,396.5,399.8z"/>
	</g>
	<path class="st1" d="M273.5,305.3c-5.5-9.1-19.6-12.2-19.6-12.2s-1.8,14.3,5,22.5C266.1,324.2,279.3,314.9,273.5,305.3z"/>
	<path class="st1" d="M237.9,368.6c-10.6-0.8-21.3,8.9-21.3,8.9s10.6,9.7,21.3,8.9C249.1,385.6,249.1,369.4,237.9,368.6z"/>
	<path class="st1" d="M257.4,345.2c-10.6-0.8-21.3,8.9-21.3,8.9s10.6,9.7,21.3,8.9C268.6,362.2,268.6,346.1,257.4,345.2z"/>
	<path class="st1" d="M358.9,405.6c10.6,0.8,21.3-8.9,21.3-8.9s-10.6-9.7-21.3-8.9C347.7,388.6,347.7,404.8,358.9,405.6z"/>
	<path class="st1" d="M230.4,312.2c7-8.1,5.6-22.4,5.6-22.4s-14.1,2.7-19.9,11.7C210.1,311,223.1,320.6,230.4,312.2z"/>
	<path class="st1" d="M347.6,327.9c6.2-8.7,3.6-22.8,3.6-22.8s-13.8,4-18.7,13.4C327.3,328.6,341.1,337.1,347.6,327.9z"/>
	<path class="st1" d="M409.3,396.7c3.2-10.2-3.8-22.7-3.8-22.7s-11.9,8.1-13.5,18.7C390.2,403.7,405.9,407.4,409.3,396.7z"/>
	<path class="st1" d="M196.5,408.8c-1.7-10.5-13.5-18.7-13.5-18.7s-7,12.6-3.8,22.7C182.5,423.6,198.2,419.9,196.5,408.8z"/>
	<path class="st1" d="M219.5,499.6c4.2,9.8,17.6,14.9,17.6,14.9s3.8-13.9-1.8-23C229.5,481.8,215.1,489.2,219.5,499.6z"/>
	<path class="st1" d="M263.3,510.1c-6.3-7.2-19.2-7.7-19.2-7.7s0.7,12.9,7.9,19.1C259.7,527.9,269.9,517.6,263.3,510.1z"/>
	<path class="st1" d="M341.4,512.2c6.3-7.2,19.2-7.7,19.2-7.7s-0.7,12.9-7.9,19.1C345,530.1,334.8,519.8,341.4,512.2z"/>
	<path class="st1" d="M387.3,498.3c-4.2,9.8-17.6,14.9-17.6,14.9s-3.8-13.9,1.8-23C377.3,480.5,391.7,487.9,387.3,498.3z"/>
	<path class="st1" d="M380.8,351.8c9.2-5.5,12.4-19.5,12.4-19.5s-14.3-1.9-22.5,4.9C361.9,344.2,371.1,357.5,380.8,351.8z"/>
	<path class="st1" d="M395.7,315.8c3.8,10,17.1,15.5,17.1,15.5s4.2-13.7-1-23C406.3,298.5,391.7,305.3,395.7,315.8z"/>
	<path class="st1" d="M259,263.2c-9.4,5-13.3,18.8-13.3,18.8s14.1,2.6,22.8-3.7C277.5,271.7,269,258,259,263.2z"/>
	<path class="st1" d="M345.2,263.2c9.4,5,13.3,18.8,13.3,18.8s-14.1,2.6-22.8-3.7C326.7,271.7,335.3,258,345.2,263.2z"/>
</g>
<g>
	<g class="st2">
		<path class="st1" d="M188.8,586.3l-6.2,14.7c-0.1,0.4-0.3,0.7-0.6,0.9c-0.3,0.2-0.6,0.3-0.9,0.3c-0.5,0-0.9-0.1-1.2-0.4
			c-0.3-0.3-0.4-0.6-0.4-1.1c0-0.2,0-0.4,0.1-0.5l7.2-17.3c0.2-0.4,0.4-0.7,0.7-0.9c0.3-0.2,0.7-0.3,1-0.3c0.3,0,0.7,0.1,1,0.3
			s0.5,0.5,0.7,0.9l7.1,16.9c0.1,0.3,0.1,0.5,0.1,0.7c0,0.5-0.2,0.9-0.5,1.2c-0.3,0.3-0.7,0.5-1.1,0.5c-0.3,0-0.7-0.1-0.9-0.3
			c-0.3-0.2-0.5-0.5-0.7-0.9l-6.2-14.5L188.8,586.3z M183.5,597.5l1.6-3.3h7.8l0.5,3.3H183.5z M188.6,580.7c-0.4,0-0.7-0.1-0.9-0.3
			c-0.2-0.2-0.3-0.4-0.3-0.8c0-0.1,0-0.3,0.1-0.4c0.1-0.1,0.2-0.3,0.3-0.4l2.5-2.2c0.2-0.2,0.4-0.3,0.7-0.4c0.2-0.1,0.5-0.2,0.7-0.2
			c0.3,0,0.7,0.1,1,0.4c0.3,0.3,0.5,0.6,0.5,1c0,0.3-0.1,0.6-0.3,0.9c-0.2,0.3-0.4,0.5-0.8,0.7l-2.9,1.5c-0.1,0.1-0.2,0.1-0.3,0.1
			S188.7,580.7,188.6,580.7z"/>
		<path class="st1" d="M204.8,602c-0.5,0-1-0.2-1.4-0.5c-0.4-0.3-0.6-0.8-0.6-1.3v-16.7c0-0.5,0.2-0.9,0.5-1.3
			c0.3-0.3,0.8-0.5,1.3-0.5h8.3c1,0,1.9,0.3,2.8,0.8c0.9,0.5,1.6,1.3,2.1,2.2c0.5,0.9,0.8,2,0.8,3.2c0,0.7-0.1,1.4-0.4,2.1
			c-0.3,0.7-0.7,1.3-1.2,1.9c-0.5,0.6-1.1,1-1.7,1.3l0-0.7c0.5,0.3,1,0.6,1.3,1c0.4,0.4,0.6,0.8,0.8,1.3c0.2,0.5,0.3,0.9,0.4,1.5
			c0.1,0.5,0.1,0.9,0.2,1.3s0.1,0.7,0.2,0.9c0.1,0.3,0.3,0.4,0.5,0.6c0.4,0.3,0.7,0.6,0.8,1.1c0.1,0.5,0,0.9-0.3,1.3
			c-0.2,0.2-0.5,0.4-0.8,0.5c-0.3,0.1-0.7,0.1-1,0s-0.6-0.2-0.8-0.3c-0.3-0.2-0.7-0.5-1-0.9c-0.3-0.4-0.6-0.9-0.8-1.5
			c-0.2-0.6-0.3-1.5-0.3-2.5c0-0.3-0.1-0.6-0.2-0.9c-0.1-0.3-0.3-0.5-0.5-0.7c-0.2-0.2-0.5-0.4-0.8-0.5c-0.3-0.1-0.7-0.2-1.2-0.2
			h-5.8l0.4-0.7v6.3c0,0.5-0.1,0.9-0.4,1.3C205.7,601.9,205.3,602,204.8,602z M206,591.7h6.7c0.3,0,0.7-0.2,1-0.5
			c0.3-0.3,0.6-0.8,0.8-1.3c0.2-0.5,0.3-1.2,0.3-1.8c0-0.8-0.2-1.6-0.7-2.1c-0.5-0.6-0.9-0.9-1.5-0.9H206l0.3-0.9v8.2L206,591.7z"/>
		<path class="st1" d="M234.6,581.8c1.9,0,3.2,0.4,4.1,1.3c0.9,0.9,1.4,2.1,1.4,3.8c0,0.9-0.2,1.7-0.7,2.4s-1.1,1.2-2,1.6
			c-0.9,0.4-1.9,0.6-3.2,0.6l0.1-1.3c0.6,0,1.3,0.1,2.1,0.2c0.8,0.2,1.5,0.5,2.2,0.9c0.7,0.4,1.3,1,1.8,1.7c0.5,0.7,0.7,1.7,0.7,2.8
			c0,1.3-0.2,2.3-0.6,3.1s-1,1.4-1.6,1.9s-1.4,0.7-2.2,0.9c-0.8,0.2-1.5,0.2-2.2,0.2h-7.2c-0.5,0-0.9-0.2-1.3-0.5
			c-0.3-0.3-0.5-0.8-0.5-1.3v-16.7c0-0.5,0.2-0.9,0.5-1.3c0.3-0.3,0.8-0.5,1.3-0.5H234.6z M234,585.2h-5.1l0.4-0.5v5.2l-0.3-0.3h5.2
			c0.6,0,1.1-0.2,1.5-0.5c0.4-0.4,0.7-0.9,0.7-1.6c0-0.8-0.2-1.4-0.6-1.8C235.3,585.4,234.7,585.2,234,585.2z M234.3,593.1H229
			l0.3-0.2v6.1l-0.3-0.3h5.5c0.9,0,1.6-0.2,2.1-0.7c0.5-0.5,0.8-1.2,0.8-2.1c0-0.9-0.2-1.5-0.5-1.9c-0.3-0.4-0.8-0.6-1.2-0.7
			C235.1,593.2,234.7,593.1,234.3,593.1z"/>
		<path class="st1" d="M266,591.9c0,1.4-0.2,2.8-0.7,4c-0.5,1.3-1.2,2.4-2,3.3c-0.9,1-1.9,1.7-3.1,2.2c-1.2,0.5-2.5,0.8-3.9,0.8
			c-1.4,0-2.7-0.3-3.9-0.8s-2.2-1.3-3.1-2.2c-0.9-1-1.6-2.1-2-3.3s-0.7-2.6-0.7-4c0-1.4,0.2-2.8,0.7-4c0.5-1.3,1.2-2.4,2-3.3
			c0.9-1,1.9-1.7,3.1-2.2c1.2-0.5,2.5-0.8,3.9-0.8c1.4,0,2.7,0.3,3.9,0.8c1.2,0.5,2.2,1.3,3.1,2.2c0.9,1,1.6,2.1,2,3.3
			C265.7,589.1,266,590.5,266,591.9z M262.2,591.9c0-1.3-0.3-2.5-0.8-3.5c-0.5-1-1.2-1.9-2.1-2.5c-0.9-0.6-2-0.9-3.2-0.9
			c-1.2,0-2.2,0.3-3.2,0.9c-0.9,0.6-1.6,1.4-2.1,2.5s-0.8,2.2-0.8,3.5c0,1.3,0.3,2.5,0.8,3.5c0.5,1.1,1.2,1.9,2.1,2.5
			c0.9,0.6,2,0.9,3.2,0.9c1.2,0,2.2-0.3,3.2-0.9c0.9-0.6,1.6-1.5,2.1-2.5C261.9,594.4,262.2,593.2,262.2,591.9z"/>
		<path class="st1" d="M283.3,598.7c0.5,0,0.9,0.2,1.3,0.5c0.3,0.3,0.5,0.7,0.5,1.2c0,0.5-0.2,0.9-0.5,1.2c-0.3,0.3-0.8,0.5-1.3,0.5
			h-9.4c-0.5,0-0.9-0.2-1.3-0.5c-0.3-0.3-0.5-0.8-0.5-1.3v-16.7c0-0.5,0.2-0.9,0.5-1.3c0.3-0.3,0.8-0.5,1.3-0.5
			c0.5,0,0.9,0.2,1.2,0.5c0.4,0.3,0.5,0.8,0.5,1.3v15.6l-0.6-0.5H283.3z"/>
		<path class="st1" d="M293.1,581.8h9.7c0.5,0,0.9,0.2,1.3,0.5c0.3,0.3,0.5,0.7,0.5,1.2c0,0.5-0.2,0.9-0.5,1.2
			c-0.3,0.3-0.8,0.4-1.3,0.4h-8.1l0.3-0.5v5.6l-0.2-0.2h6.8c0.5,0,0.9,0.2,1.3,0.5c0.3,0.3,0.5,0.7,0.5,1.2c0,0.5-0.2,0.9-0.5,1.2
			c-0.3,0.3-0.8,0.4-1.3,0.4h-6.7l0.1-0.2v5.8l-0.2-0.3h8.1c0.5,0,0.9,0.2,1.3,0.5c0.3,0.3,0.5,0.7,0.5,1.2c0,0.5-0.2,0.9-0.5,1.2
			c-0.3,0.3-0.8,0.5-1.3,0.5h-9.7c-0.5,0-0.9-0.2-1.3-0.5c-0.3-0.3-0.5-0.8-0.5-1.3v-16.7c0-0.5,0.2-0.9,0.5-1.3
			C292.2,582,292.6,581.8,293.1,581.8z"/>
		<path class="st1" d="M317.3,602.3c-1.3,0-2.6-0.2-3.6-0.5s-2.1-0.9-3.1-1.8c-0.3-0.2-0.4-0.5-0.6-0.7s-0.2-0.5-0.2-0.8
			c0-0.4,0.2-0.8,0.5-1.2c0.3-0.3,0.7-0.5,1.2-0.5c0.4,0,0.7,0.1,1,0.3c0.7,0.6,1.5,1.1,2.2,1.4c0.7,0.3,1.6,0.5,2.7,0.5
			c0.7,0,1.4-0.1,2-0.3s1.1-0.5,1.4-0.9c0.4-0.4,0.5-0.8,0.5-1.3c0-0.6-0.2-1.1-0.5-1.5c-0.3-0.4-0.9-0.7-1.6-1
			c-0.7-0.3-1.6-0.5-2.7-0.7c-1-0.2-2-0.4-2.7-0.7c-0.8-0.3-1.5-0.7-2-1.2c-0.5-0.5-0.9-1.1-1.2-1.7c-0.3-0.7-0.4-1.4-0.4-2.2
			c0-1.3,0.3-2.3,1-3.2s1.5-1.6,2.6-2c1.1-0.5,2.3-0.7,3.6-0.7c1.3,0,2.4,0.2,3.5,0.6c1.1,0.4,1.9,0.9,2.6,1.4
			c0.6,0.4,0.8,1,0.8,1.5c0,0.4-0.2,0.8-0.5,1.2s-0.7,0.5-1.2,0.5c-0.3,0-0.5-0.1-0.8-0.3c-0.3-0.3-0.7-0.5-1.2-0.8
			c-0.5-0.2-1.1-0.4-1.6-0.6c-0.6-0.2-1.1-0.2-1.6-0.2c-0.8,0-1.5,0.1-2.1,0.3c-0.6,0.2-1,0.5-1.3,0.9c-0.3,0.4-0.4,0.8-0.4,1.3
			c0,0.6,0.2,1.1,0.5,1.4s0.8,0.7,1.5,0.9c0.6,0.2,1.4,0.4,2.3,0.6c1.2,0.2,2.2,0.5,3.1,0.8c0.9,0.3,1.6,0.7,2.2,1.1
			c0.6,0.5,1,1,1.3,1.7c0.3,0.7,0.4,1.5,0.4,2.5c0,1.3-0.3,2.3-1,3.2c-0.7,0.9-1.6,1.6-2.7,2.1C319.8,602.1,318.6,602.3,317.3,602.3
			z"/>
	</g>
</g>
<g>
	<g class="st2">
		<path class="st0" d="M342.3,600.3c0,0.5-0.2,0.9-0.5,1.3c-0.4,0.3-0.8,0.5-1.3,0.5c-0.5,0-1-0.2-1.3-0.5s-0.5-0.8-0.5-1.3v-16.7
			c0-0.5,0.2-0.9,0.5-1.3c0.3-0.3,0.8-0.5,1.3-0.5c0.5,0,0.9,0.2,1.2,0.5c0.4,0.3,0.5,0.8,0.5,1.3V600.3z"/>
		<path class="st0" d="M350,585.1c-0.5,0-0.9-0.2-1.3-0.5c-0.3-0.3-0.5-0.7-0.5-1.2c0-0.5,0.2-0.9,0.5-1.2c0.3-0.3,0.8-0.4,1.3-0.4
			h12.8c0.5,0,0.9,0.2,1.3,0.5c0.3,0.3,0.5,0.7,0.5,1.2s-0.2,0.9-0.5,1.2c-0.3,0.3-0.8,0.4-1.3,0.4H350z M356.4,602
			c-0.5,0-1-0.2-1.3-0.5c-0.3-0.3-0.5-0.8-0.5-1.3v-16.8h3.8v16.8c0,0.5-0.2,0.9-0.5,1.3C357.4,601.9,356.9,602,356.4,602z"/>
		<path class="st0" d="M372.3,581.8h9.7c0.5,0,0.9,0.2,1.3,0.5c0.3,0.3,0.5,0.7,0.5,1.2c0,0.5-0.2,0.9-0.5,1.2
			c-0.3,0.3-0.8,0.4-1.3,0.4h-8.1l0.3-0.5v5.6l-0.2-0.2h6.8c0.5,0,0.9,0.2,1.3,0.5c0.3,0.3,0.5,0.7,0.5,1.2c0,0.5-0.2,0.9-0.5,1.2
			c-0.3,0.3-0.8,0.4-1.3,0.4H374l0.1-0.2v5.8l-0.2-0.3h8.1c0.5,0,0.9,0.2,1.3,0.5c0.3,0.3,0.5,0.7,0.5,1.2c0,0.5-0.2,0.9-0.5,1.2
			c-0.3,0.3-0.8,0.5-1.3,0.5h-9.7c-0.5,0-0.9-0.2-1.3-0.5c-0.3-0.3-0.5-0.8-0.5-1.3v-16.7c0-0.5,0.2-0.9,0.5-1.3
			C371.4,582,371.8,581.8,372.3,581.8z"/>
		<path class="st0" d="M396.5,602.3c-1.3,0-2.6-0.2-3.6-0.5c-1.1-0.3-2.1-0.9-3.1-1.8c-0.2-0.2-0.4-0.5-0.6-0.7s-0.2-0.5-0.2-0.8
			c0-0.4,0.2-0.8,0.5-1.2c0.3-0.3,0.7-0.5,1.2-0.5c0.4,0,0.7,0.1,1,0.3c0.7,0.6,1.5,1.1,2.2,1.4c0.7,0.3,1.6,0.5,2.7,0.5
			c0.7,0,1.4-0.1,2-0.3s1.1-0.5,1.4-0.9s0.5-0.8,0.5-1.3c0-0.6-0.2-1.1-0.5-1.5c-0.3-0.4-0.9-0.7-1.6-1s-1.6-0.5-2.7-0.7
			c-1-0.2-2-0.4-2.7-0.7s-1.5-0.7-2-1.2c-0.5-0.5-0.9-1.1-1.2-1.7s-0.4-1.4-0.4-2.2c0-1.3,0.3-2.3,1-3.2c0.6-0.9,1.5-1.6,2.6-2
			c1.1-0.5,2.3-0.7,3.6-0.7c1.3,0,2.4,0.2,3.5,0.6s1.9,0.9,2.6,1.4c0.6,0.4,0.8,1,0.8,1.5c0,0.4-0.2,0.8-0.5,1.2
			c-0.3,0.3-0.7,0.5-1.2,0.5c-0.3,0-0.5-0.1-0.8-0.3c-0.3-0.3-0.7-0.5-1.2-0.8s-1.1-0.4-1.6-0.6c-0.6-0.2-1.1-0.2-1.6-0.2
			c-0.8,0-1.5,0.1-2.1,0.3c-0.6,0.2-1,0.5-1.3,0.9c-0.3,0.4-0.4,0.8-0.4,1.3c0,0.6,0.2,1.1,0.5,1.4c0.3,0.4,0.8,0.7,1.5,0.9
			s1.4,0.4,2.3,0.6c1.2,0.2,2.2,0.5,3.1,0.8c0.9,0.3,1.6,0.7,2.2,1.1s1,1,1.3,1.7c0.3,0.7,0.4,1.5,0.4,2.5c0,1.3-0.3,2.3-1,3.2
			s-1.6,1.6-2.7,2.1S397.8,602.3,396.5,602.3z"/>
		<path class="st0" d="M428.7,591.9c0,1.4-0.2,2.8-0.7,4c-0.5,1.3-1.2,2.4-2,3.3c-0.9,1-1.9,1.7-3.1,2.2c-1.2,0.5-2.5,0.8-3.9,0.8
			c-1.4,0-2.7-0.3-3.9-0.8s-2.2-1.3-3.1-2.2s-1.6-2.1-2-3.3c-0.5-1.3-0.7-2.6-0.7-4c0-1.4,0.2-2.8,0.7-4c0.5-1.3,1.2-2.4,2-3.3
			s1.9-1.7,3.1-2.2c1.2-0.5,2.5-0.8,3.9-0.8c1.4,0,2.7,0.3,3.9,0.8c1.2,0.5,2.2,1.3,3.1,2.2c0.9,1,1.6,2.1,2,3.3
			C428.5,589.1,428.7,590.5,428.7,591.9z M425,591.9c0-1.3-0.3-2.5-0.8-3.5c-0.5-1-1.2-1.9-2.1-2.5c-0.9-0.6-2-0.9-3.2-0.9
			s-2.2,0.3-3.2,0.9s-1.6,1.4-2.1,2.5s-0.8,2.2-0.8,3.5c0,1.3,0.3,2.5,0.8,3.5c0.5,1.1,1.2,1.9,2.1,2.5c0.9,0.6,2,0.9,3.2,0.9
			s2.2-0.3,3.2-0.9c0.9-0.6,1.6-1.5,2.1-2.5C424.7,594.4,425,593.2,425,591.9z"/>
	</g>
</g>
</svg>
